<svg xmlns="http://www.w3.org/2000/svg" viewBox="0 0 48 48" fill="none">
  <defs>
    <linearGradient id="g5" x1="0" y1="0" x2="48" y2="48">
      <stop offset="0%" stop-color="#8B5CF6"/>
      <stop offset="100%" stop-color="#6366F1"/>
    </linearGradient>
  </defs>
  <path d="M24 12C20 10 14 8 8 10V34C14 32 20 34 24 36C28 34 34 32 40 34V10C34 8 28 10 24 12Z" fill="url(#g5)" opacity="0.3"/>
  <path d="M24 12C20 10 14 8 8 10V34C14 32 20 34 24 36V12Z" fill="url(#g5)" opacity="0.7"/>
  <path d="M24 12C28 10 34 8 40 10V34C34 32 28 34 24 36V12Z" fill="url(#g5)" opacity="0.5"/>
  <line x1="24" y1="12" x2="24" y2="36" stroke="url(#g5)" stroke-width="1.5" opacity="0.4"/>
  <line x1="12" y1="16" x2="20" y2="15" stroke="white" stroke-width="1.5" stroke-linecap="round" opacity="0.4"/>
  <line x1="12" y1="20" x2="20" y2="19" stroke="white" stroke-width="1.5" stroke-linecap="round" opacity="0.4"/>
  <line x1="12" y1="24" x2="18" y2="23" stroke="white" stroke-width="1.5" stroke-linecap="round" opacity="0.4"/>
  <line x1="28" y1="15" x2="36" y2="16" stroke="white" stroke-width="1.5" stroke-linecap="round" opacity="0.4"/>
  <line x1="28" y1="19" x2="36" y2="20" stroke="white" stroke-width="1.5" stroke-linecap="round" opacity="0.4"/>
  <line x1="28" y1="23" x2="34" y2="24" stroke="white" stroke-width="1.5" stroke-linecap="round" opacity="0.4"/>
</svg>
